<svg width="136" height="32" viewBox="0 0 136 32" fill="none" xmlns="http://www.w3.org/2000/svg">
<path d="M44.5046 3.95931C44.5046 4.91069 44.2128 5.67265 43.6381 6.24092C42.9773 6.91458 42.1166 7.25354 41.0619 7.25354C40.0539 7.25354 39.1933 6.90888 38.4873 6.22952C37.7798 5.5402 37.4268 4.69421 37.4268 3.68158C37.4268 2.66896 37.7798 1.82297 38.4873 1.13934C39.1933 0.454283 40.0539 0.109619 41.0619 0.109619C41.5637 0.109619 42.0422 0.210739 42.4988 0.398737C42.9539 0.58816 43.3244 0.84452 43.5928 1.1607L42.9831 1.76172C42.5148 1.22194 41.8774 0.955611 41.0619 0.955611C40.3267 0.955611 39.6893 1.20627 39.1481 1.71187C38.6127 2.2189 38.3443 2.87547 38.3443 3.68158C38.3443 4.48769 38.6127 5.14996 39.1481 5.65698C39.6893 6.15689 40.3267 6.41325 41.0619 6.41325C41.8424 6.41325 42.4988 6.15689 43.0166 5.65129C43.358 5.31659 43.552 4.85514 43.6031 4.26551H41.0619V3.44231H44.452C44.4929 3.62034 44.5046 3.79267 44.5046 3.95931Z" fill="url(#paint0_linear_108_126)"/>
<path d="M49.8829 1.10515H46.6985V3.26997H49.5693V4.09317H46.6985V6.258H49.8829V7.09687H45.797V0.266278H49.8829V1.10515Z" fill="url(#paint1_linear_108_126)"/>
<path d="M53.6785 7.09687H52.777V1.10515H50.8238V0.266278H55.6332V1.10515H53.6785V7.09687Z" fill="url(#paint2_linear_108_126)"/>
<path d="M59.1138 7.09687V0.266278H60.0138V7.09687H59.1138Z" fill="url(#paint3_linear_108_126)"/>
<path d="M64.0035 7.09687H63.1093V1.10515H61.1487V0.266278H65.964V1.10515H64.0035V7.09687Z" fill="url(#paint4_linear_108_126)"/>
<path d="M75.0695 6.21813C74.3795 6.90888 73.5247 7.25354 72.505 7.25354C71.4795 7.25354 70.6247 6.90888 69.9347 6.21813C69.2462 5.5288 68.9034 4.68281 68.9034 3.68158C68.9034 2.68035 69.2462 1.83436 69.9347 1.14503C70.6247 0.454282 71.4795 0.109619 72.505 0.109619C73.5189 0.109619 74.3737 0.454282 75.0637 1.15073C75.758 1.84575 76.1008 2.68605 76.1008 3.68158C76.1008 4.68281 75.758 5.5288 75.0695 6.21813ZM70.6014 5.64559C71.1207 6.15689 71.7523 6.41325 72.505 6.41325C73.2519 6.41325 73.8894 6.15689 74.4029 5.64559C74.9207 5.13429 75.1833 4.47773 75.1833 3.68158C75.1833 2.88544 74.9207 2.22887 74.4029 1.71757C73.8894 1.20628 73.2519 0.949913 72.505 0.949913C71.7523 0.949913 71.1207 1.20628 70.6014 1.71757C70.0835 2.22887 69.821 2.88544 69.821 3.68158C69.821 4.47773 70.0835 5.13429 70.6014 5.64559Z" fill="url(#paint5_linear_108_126)"/>
<path d="M77.3655 7.09687V0.266278H78.4596L81.8614 5.57865H81.9008L81.8614 4.26551V0.266278H82.7614V7.09687H81.822L78.2597 1.52245H78.2204L78.2597 2.84128V7.09687H77.3655Z" fill="url(#paint6_linear_108_126)"/>
<path d="M68.6822 17.0725C65.9412 17.0725 63.702 19.1091 63.702 21.9191C63.702 24.7063 65.9412 26.7643 68.6822 26.7643C71.429 26.7643 73.6681 24.7063 73.6681 21.9191C73.6681 19.1091 71.429 17.0725 68.6822 17.0725ZM68.6822 24.8559C67.1782 24.8559 65.8843 23.6439 65.8843 21.9191C65.8843 20.1716 67.1782 18.9809 68.6822 18.9809C70.1861 18.9809 71.4859 20.1716 71.4859 21.9191C71.4859 23.6439 70.1861 24.8559 68.6822 24.8559ZM57.816 17.0725C55.0692 17.0725 52.8359 19.1091 52.8359 21.9191C52.8359 24.7063 55.0692 26.7643 57.816 26.7643C60.5614 26.7643 62.7962 24.7063 62.7962 21.9191C62.7962 19.1091 60.5614 17.0725 57.816 17.0725ZM57.816 24.8559C56.3106 24.8559 55.0123 23.6439 55.0123 21.9191C55.0123 20.1716 56.3106 18.9809 57.816 18.9809C59.32 18.9809 60.6139 20.1716 60.6139 21.9191C60.6139 23.6439 59.32 24.8559 57.816 24.8559ZM44.8858 18.5579V20.6174H49.9228C49.7755 21.7682 49.3816 22.6141 48.7777 23.2038C48.0425 23.9159 46.8974 24.7063 44.8858 24.7063C41.786 24.7063 39.3586 22.2638 39.3586 19.2373C39.3586 16.2108 41.786 13.7683 44.8858 13.7683C46.5619 13.7683 47.7814 14.4077 48.6814 15.2366L50.1679 13.7854C48.909 12.6118 47.2343 11.7103 44.8858 11.7103C40.635 11.7103 37.0626 15.0871 37.0626 19.2373C37.0626 23.3875 40.635 26.7643 44.8858 26.7643C47.1833 26.7643 48.909 26.0294 50.2656 24.6508C51.6558 23.2935 52.089 21.385 52.089 19.844C52.089 19.3655 52.0482 18.9254 51.9752 18.5579H44.8858ZM97.7592 20.1545C97.3493 19.0707 96.0846 17.0725 93.5084 17.0725C90.9556 17.0725 88.8302 19.0365 88.8302 21.9191C88.8302 24.6337 90.9337 26.7643 93.7535 26.7643C96.0335 26.7643 97.3493 25.4071 97.8905 24.6166L96.1983 23.5157C95.6338 24.3218 94.865 24.8559 93.7535 24.8559C92.6492 24.8559 91.8571 24.3617 91.3495 23.3875L97.9882 20.7057L97.7592 20.1545ZM90.9906 21.7682C90.9338 19.8996 92.4771 18.9425 93.5828 18.9425C94.4493 18.9425 95.1845 19.3655 95.4296 19.9708L90.9906 21.7682ZM85.5948 26.4695H87.777V12.2273H85.5948V26.4695ZM82.0209 18.152H81.9479C81.4578 17.5852 80.5227 17.0725 79.3382 17.0725C76.8526 17.0725 74.5798 19.2031 74.5798 21.9348C74.5798 24.6508 76.8526 26.7643 79.3382 26.7643C80.5227 26.7643 81.4578 26.2473 81.9479 25.6634H82.0209V26.3584C82.0209 28.2114 81.007 29.2069 79.3718 29.2069C78.0385 29.2069 77.2114 28.2669 76.8701 27.4765L74.9722 28.2498C75.5193 29.5345 76.9678 31.1154 79.3718 31.1154C81.9304 31.1154 84.0894 29.6456 84.0894 26.0693V17.3673H82.0209V18.152ZM79.525 24.8559C78.021 24.8559 76.7621 23.6268 76.7621 21.9348C76.7621 20.2271 78.021 18.9809 79.525 18.9809C81.007 18.9809 82.1755 20.2271 82.1755 21.9348C82.1755 23.6268 81.007 24.8559 79.525 24.8559ZM107.976 12.2273H102.757V26.4695H104.933V21.0731H107.976C110.393 21.0731 112.764 19.3655 112.764 16.6495C112.764 13.9349 110.387 12.2273 107.976 12.2273ZM108.033 19.092H104.933V14.2084H108.033C109.658 14.2084 110.586 15.5258 110.586 16.6495C110.586 17.7518 109.658 19.092 108.033 19.092ZM121.487 17.0454C119.914 17.0454 118.279 17.7233 117.607 19.2259L119.538 20.0164C119.954 19.2259 120.718 18.9695 121.526 18.9695C122.655 18.9695 123.801 19.6318 123.818 20.8011V20.9506C123.424 20.7285 122.581 20.3995 121.544 20.3995C119.464 20.3995 117.344 21.5175 117.344 23.604C117.344 25.5124 119.048 26.7416 120.963 26.7416C122.428 26.7416 123.236 26.0964 123.744 25.3458H123.818V26.4467H125.92V20.9834C125.92 18.4583 123.989 17.0454 121.487 17.0454ZM121.224 24.8502C120.513 24.8502 119.521 24.5055 119.521 23.6439C119.521 22.5415 120.758 22.1185 121.828 22.1185C122.787 22.1185 123.236 22.325 123.818 22.5971C123.647 23.9159 122.485 24.8502 121.224 24.8502ZM133.578 17.3573L131.077 23.5313H131.002L128.416 17.3573H126.069L129.955 25.9853L127.738 30.7864H130.012L136 17.3573H133.578ZM113.96 26.4695H116.142V12.2273H113.96V26.4695Z" fill="#33354D"/>
<path d="M0.541191 0.877587C0.198387 1.22795 0 1.77343 0 2.47984V27.6773C0 28.3837 0.198387 28.9292 0.541191 29.2795L0.625798 29.3564L15.0877 15.2423V14.9091L0.625798 0.794983L0.541191 0.877587Z" fill="url(#paint7_linear_108_126)"/>
<path d="M19.9022 19.9492L15.0877 15.2423V14.9091L19.908 10.2018L20.016 10.263L25.7255 13.4348C27.3549 14.3349 27.3549 15.8161 25.7255 16.7219L20.016 19.888L19.9022 19.9492Z" fill="url(#paint8_linear_108_126)"/>
<path d="M20.016 19.888L15.0866 15.0756L0.540039 29.2794C1.08123 29.8348 1.96377 29.9018 2.96738 29.3463L20.016 19.888Z" fill="url(#paint9_linear_108_126)"/>
<path d="M20.016 10.263L2.96738 0.804925C1.96377 0.255174 1.08123 0.322111 0.540039 0.877559L15.0866 15.0756L20.016 10.263Z" fill="url(#paint10_linear_108_126)"/>
<defs>
<linearGradient id="paint0_linear_108_126" x1="-3.12163" y1="37.6626" x2="8.45414" y2="25.8064" gradientUnits="userSpaceOnUse">
<stop stop-color="#32A071"/>
<stop offset="0.0685" stop-color="#2DA771"/>
<stop offset="0.4762" stop-color="#15CF74"/>
<stop offset="0.8009" stop-color="#06E775"/>
<stop offset="1" stop-color="#00F076"/>
</linearGradient>
<linearGradient id="paint1_linear_108_126" x1="-3.12163" y1="37.6626" x2="8.45414" y2="25.8064" gradientUnits="userSpaceOnUse">
<stop stop-color="#32A071"/>
<stop offset="0.0685" stop-color="#2DA771"/>
<stop offset="0.4762" stop-color="#15CF74"/>
<stop offset="0.8009" stop-color="#06E775"/>
<stop offset="1" stop-color="#00F076"/>
</linearGradient>
<linearGradient id="paint2_linear_108_126" x1="-3.12163" y1="37.6626" x2="8.45414" y2="25.8064" gradientUnits="userSpaceOnUse">
<stop stop-color="#32A071"/>
<stop offset="0.0685" stop-color="#2DA771"/>
<stop offset="0.4762" stop-color="#15CF74"/>
<stop offset="0.8009" stop-color="#06E775"/>
<stop offset="1" stop-color="#00F076"/>
</linearGradient>
<linearGradient id="paint3_linear_108_126" x1="-3.12163" y1="37.6626" x2="8.45414" y2="25.8064" gradientUnits="userSpaceOnUse">
<stop stop-color="#32A071"/>
<stop offset="0.0685" stop-color="#2DA771"/>
<stop offset="0.4762" stop-color="#15CF74"/>
<stop offset="0.8009" stop-color="#06E775"/>
<stop offset="1" stop-color="#00F076"/>
</linearGradient>
<linearGradient id="paint4_linear_108_126" x1="-3.12163" y1="37.6626" x2="8.45414" y2="25.8064" gradientUnits="userSpaceOnUse">
<stop stop-color="#32A071"/>
<stop offset="0.0685" stop-color="#2DA771"/>
<stop offset="0.4762" stop-color="#15CF74"/>
<stop offset="0.8009" stop-color="#06E775"/>
<stop offset="1" stop-color="#00F076"/>
</linearGradient>
<linearGradient id="paint5_linear_108_126" x1="-3.12163" y1="37.6626" x2="8.45414" y2="25.8064" gradientUnits="userSpaceOnUse">
<stop stop-color="#32A071"/>
<stop offset="0.0685" stop-color="#2DA771"/>
<stop offset="0.4762" stop-color="#15CF74"/>
<stop offset="0.8009" stop-color="#06E775"/>
<stop offset="1" stop-color="#00F076"/>
</linearGradient>
<linearGradient id="paint6_linear_108_126" x1="-3.12163" y1="37.6626" x2="8.45414" y2="25.8064" gradientUnits="userSpaceOnUse">
<stop stop-color="#32A071"/>
<stop offset="0.0685" stop-color="#2DA771"/>
<stop offset="0.4762" stop-color="#15CF74"/>
<stop offset="0.8009" stop-color="#06E775"/>
<stop offset="1" stop-color="#00F076"/>
</linearGradient>
<linearGradient id="paint7_linear_108_126" x1="124.426" y1="1.64763" x2="119.611" y2="42.5974" gradientUnits="userSpaceOnUse">
<stop stop-color="#00A0FF"/>
<stop offset="0.0066" stop-color="#00A1FF"/>
<stop offset="0.2601" stop-color="#00BEFF"/>
<stop offset="0.5122" stop-color="#00D2FF"/>
<stop offset="0.7604" stop-color="#00DFFF"/>
<stop offset="1" stop-color="#00E3FF"/>
</linearGradient>
<linearGradient id="paint8_linear_108_126" x1="146.316" y1="15.6176" x2="-177.469" y2="15.6176" gradientUnits="userSpaceOnUse">
<stop stop-color="#FFE000"/>
<stop offset="0.4087" stop-color="#FFBD00"/>
<stop offset="0.7754" stop-color="#FFA500"/>
<stop offset="1" stop-color="#FF9C00"/>
</linearGradient>
<linearGradient id="paint9_linear_108_126" x1="117.283" y1="36.6502" x2="87.4395" y2="137.542" gradientUnits="userSpaceOnUse">
<stop stop-color="#FF3A44"/>
<stop offset="1" stop-color="#C31162"/>
</linearGradient>
<linearGradient id="paint10_linear_108_126" x1="-3.12163" y1="37.6626" x2="8.45414" y2="25.8064" gradientUnits="userSpaceOnUse">
<stop stop-color="#32A071"/>
<stop offset="0.0685" stop-color="#2DA771"/>
<stop offset="0.4762" stop-color="#15CF74"/>
<stop offset="0.8009" stop-color="#06E775"/>
<stop offset="1" stop-color="#00F076"/>
</linearGradient>
</defs>
</svg>
